# xmcd
#
# Track frame offsets: 
#        150
#        1402
#        14182
#        26371
#        40314
#        54511
#        69553
#        86675
#        99703
#        110310
#        125459
#        138498
#        157284
#        168116
#
# Disc length: 2393 seconds
#
# Revision: 0
# Processed by: cddbd v1.5.2PL0 Copyright (c) Steve Scherf et al.
# Submitted via: ExactAudioCopy v0.99pb4
#
DISCID=bb09570e
DTITLE=Heather Berry and Virginia Carolina - Pink Shoes and Bluegrass Blue
DTITLE=s
DYEAR=2005
DGENRE=Bluegrass
TTITLE0=Pink Shoes Entrance
TTITLE1=Worried Man Blues
TTITLE2=Little Cabin Home On The Hill
TTITLE3=Hills Of Glory
TTITLE4=Its So Easy To Fall In Love
TTITLE5=Write Me Sweetheart
TTITLE6=I Am Weary (Let Me Rest)
TTITLE7=Keep On The Sunny Side
TTITLE8=March Around The Throne
TTITLE9=Before I'm Over You
TTITLE10=Heavenly Reward
TTITLE11=Lord, I Want To Go To Heaven
TTITLE12=Fireball
TTITLE13=Fishers Of Men
EXTD=
EXTT0=
EXTT1=
EXTT2=
EXTT3=
EXTT4=
EXTT5=
EXTT6=
EXTT7=
EXTT8=
EXTT9=
EXTT10=
EXTT11=
EXTT12=
EXTT13=
PLAYORDER=
